<mxfile host="65bd71144e">
    <diagram id="2r4kYDlLFt5FA-E_0tEF" name="Page-1">
        <mxGraphModel dx="567" dy="354" grid="1" gridSize="10" guides="1" tooltips="1" connect="1" arrows="1" fold="1" page="1" pageScale="1" pageWidth="850" pageHeight="1100" math="0" shadow="0">
            <root>
                <mxCell id="0"/>
                <mxCell id="1" parent="0"/>
                <mxCell id="10" value="Promociones&lt;br&gt;" style="rounded=1;arcSize=10;whiteSpace=wrap;html=1;align=center;fillColor=#60a917;fontColor=#ffffff;strokeColor=#2D7600;" vertex="1" parent="1">
                    <mxGeometry x="520" y="590" width="100" height="40" as="geometry"/>
                </mxCell>
                <mxCell id="11" value="Platillos&lt;br&gt;" style="rounded=1;arcSize=10;whiteSpace=wrap;html=1;align=center;fillColor=#60a917;fontColor=#ffffff;strokeColor=#2D7600;" vertex="1" parent="1">
                    <mxGeometry x="520" y="90" width="100" height="40" as="geometry"/>
                </mxCell>
                <mxCell id="12" value="Puestos&lt;br&gt;" style="rounded=1;arcSize=10;whiteSpace=wrap;html=1;align=center;fillColor=#60a917;fontColor=#ffffff;strokeColor=#2D7600;" vertex="1" parent="1">
                    <mxGeometry x="890" y="90" width="100" height="40" as="geometry"/>
                </mxCell>
                <mxCell id="13" value="Trabajadores" style="rounded=1;arcSize=10;whiteSpace=wrap;html=1;align=center;fillColor=#60a917;fontColor=#ffffff;strokeColor=#2D7600;" vertex="1" parent="1">
                    <mxGeometry x="340" y="570" width="100" height="40" as="geometry"/>
                </mxCell>
                <mxCell id="14" value="Restaurante&lt;br&gt;&amp;nbsp;&quot;Los Tacos Amigos&quot;" style="rounded=1;arcSize=10;whiteSpace=wrap;html=1;align=center;fillColor=#60a917;fontColor=#ffffff;strokeColor=#2D7600;" vertex="1" parent="1">
                    <mxGeometry x="110" y="30" width="140" height="40" as="geometry"/>
                </mxCell>
                <mxCell id="18" value="Mobiliario&lt;br&gt;" style="rounded=1;arcSize=10;whiteSpace=wrap;html=1;align=center;fillColor=#60a917;fontColor=#ffffff;strokeColor=#2D7600;" vertex="1" parent="1">
                    <mxGeometry x="700" y="90" width="100" height="40" as="geometry"/>
                </mxCell>
                <mxCell id="19" value="Salarios&lt;br&gt;" style="rounded=1;arcSize=10;whiteSpace=wrap;html=1;align=center;fillColor=#60a917;fontColor=#ffffff;strokeColor=#2D7600;" vertex="1" parent="1">
                    <mxGeometry x="1060" y="90" width="100" height="40" as="geometry"/>
                </mxCell>
                <mxCell id="20" value="Locales" style="rounded=1;arcSize=10;whiteSpace=wrap;html=1;align=center;fillColor=#60a917;fontColor=#ffffff;strokeColor=#2D7600;" vertex="1" parent="1">
                    <mxGeometry x="340" y="90" width="100" height="40" as="geometry"/>
                </mxCell>
                <mxCell id="21" value="id trabajador" style="ellipse;whiteSpace=wrap;html=1;align=center;fillColor=#b1ddf0;strokeColor=#10739e;fontColor=#050505;" vertex="1" parent="1">
                    <mxGeometry x="340" y="630" width="100" height="40" as="geometry"/>
                </mxCell>
                <mxCell id="22" value="id puesto" style="ellipse;whiteSpace=wrap;html=1;align=center;fillColor=#b1ddf0;strokeColor=#10739e;fontColor=#050505;" vertex="1" parent="1">
                    <mxGeometry x="890" y="150" width="100" height="40" as="geometry"/>
                </mxCell>
                <mxCell id="24" value="Gastronomía" style="ellipse;whiteSpace=wrap;html=1;align=center;fillColor=#b1ddf0;strokeColor=#10739e;fontColor=#050505;" vertex="1" parent="1">
                    <mxGeometry x="130" y="220" width="100" height="40" as="geometry"/>
                </mxCell>
                <mxCell id="25" value="Pais" style="ellipse;whiteSpace=wrap;html=1;align=center;fillColor=#b1ddf0;strokeColor=#10739e;fontColor=#050505;" vertex="1" parent="1">
                    <mxGeometry x="130" y="160" width="100" height="40" as="geometry"/>
                </mxCell>
                <mxCell id="26" value="Fundación" style="ellipse;whiteSpace=wrap;html=1;align=center;fillColor=#b1ddf0;strokeColor=#10739e;fontColor=#050505;" vertex="1" parent="1">
                    <mxGeometry x="130" y="100" width="100" height="40" as="geometry"/>
                </mxCell>
                <mxCell id="29" value="Antigüedad" style="ellipse;whiteSpace=wrap;html=1;align=center;dashed=1;fillColor=none;" vertex="1" parent="1">
                    <mxGeometry x="130" y="340" width="100" height="40" as="geometry"/>
                </mxCell>
                <mxCell id="30" value="Inversores" style="ellipse;shape=doubleEllipse;margin=3;whiteSpace=wrap;html=1;align=center;fillColor=none;" vertex="1" parent="1">
                    <mxGeometry x="130" y="280" width="100" height="40" as="geometry"/>
                </mxCell>
                <mxCell id="31" value="precio" style="ellipse;whiteSpace=wrap;html=1;align=center;fillColor=#b1ddf0;strokeColor=#10739e;fontColor=#050505;" vertex="1" parent="1">
                    <mxGeometry x="520" y="270" width="100" height="40" as="geometry"/>
                </mxCell>
                <mxCell id="32" value="asegurado" style="ellipse;whiteSpace=wrap;html=1;align=center;fillColor=#b1ddf0;strokeColor=#10739e;fontColor=#050505;" vertex="1" parent="1">
                    <mxGeometry x="340" y="980" width="100" height="40" as="geometry"/>
                </mxCell>
                <mxCell id="33" value="fecha_contratación" style="ellipse;whiteSpace=wrap;html=1;align=center;fillColor=#b1ddf0;strokeColor=#10739e;fontColor=#050505;" vertex="1" parent="1">
                    <mxGeometry x="340" y="870" width="120" height="40" as="geometry"/>
                </mxCell>
                <mxCell id="34" value="Auto-Servicio" style="ellipse;whiteSpace=wrap;html=1;align=center;fillColor=#b1ddf0;strokeColor=#10739e;fontColor=#050505;" vertex="1" parent="1">
                    <mxGeometry x="340" y="330" width="100" height="40" as="geometry"/>
                </mxCell>
                <mxCell id="35" value="Ubicación" style="ellipse;whiteSpace=wrap;html=1;align=center;fillColor=#b1ddf0;strokeColor=#10739e;fontColor=#050505;" vertex="1" parent="1">
                    <mxGeometry x="340" y="210" width="100" height="40" as="geometry"/>
                </mxCell>
                <mxCell id="36" value="Capacidad&lt;br&gt;" style="ellipse;whiteSpace=wrap;html=1;align=center;fillColor=#b1ddf0;strokeColor=#10739e;fontColor=#050505;" vertex="1" parent="1">
                    <mxGeometry x="340" y="270" width="100" height="40" as="geometry"/>
                </mxCell>
                <mxCell id="37" value="id local" style="ellipse;whiteSpace=wrap;html=1;align=center;fillColor=#b1ddf0;strokeColor=#10739e;fontColor=#050505;" vertex="1" parent="1">
                    <mxGeometry x="340" y="150" width="100" height="40" as="geometry"/>
                </mxCell>
                <mxCell id="39" value="Parqueo" style="ellipse;whiteSpace=wrap;html=1;align=center;fillColor=#b1ddf0;strokeColor=#10739e;fontColor=#050505;" vertex="1" parent="1">
                    <mxGeometry x="340" y="380" width="100" height="40" as="geometry"/>
                </mxCell>
                <mxCell id="40" value="A domicilio" style="ellipse;whiteSpace=wrap;html=1;align=center;fillColor=#b1ddf0;strokeColor=#10739e;fontColor=#050505;" vertex="1" parent="1">
                    <mxGeometry x="340" y="440" width="100" height="40" as="geometry"/>
                </mxCell>
                <mxCell id="41" value="nombre&lt;span style=&quot;color: rgba(0, 0, 0, 0); font-family: monospace; font-size: 0px; text-align: start;&quot;&gt;%3CmxGraphModel%3E%3Croot%3E%3CmxCell%20id%3D%220%22%2F%3E%3CmxCell%20id%3D%221%22%20parent%3D%220%22%2F%3E%3CmxCell%20id%3D%222%22%20value%3D%22id%20trabajador%22%20style%3D%22ellipse%3BwhiteSpace%3Dwrap%3Bhtml%3D1%3Balign%3Dcenter%3BfillColor%3D%23b1ddf0%3BstrokeColor%3D%2310739e%3BfontColor%3D%23050505%3B%22%20vertex%3D%221%22%20parent%3D%221%22%3E%3CmxGeometry%20x%3D%22240%22%20y%3D%22590%22%20width%3D%22100%22%20height%3D%2240%22%20as%3D%22geometry%22%2F%3E%3C%2FmxCell%3E%3C%2Froot%3E%3C%2FmxGraphModel%3E&lt;/span&gt;" style="ellipse;whiteSpace=wrap;html=1;align=center;fillColor=#b1ddf0;strokeColor=#10739e;fontColor=#050505;" vertex="1" parent="1">
                    <mxGeometry x="340" y="690" width="100" height="40" as="geometry"/>
                </mxCell>
                <mxCell id="42" value="apellido" style="ellipse;whiteSpace=wrap;html=1;align=center;fillColor=#b1ddf0;strokeColor=#10739e;fontColor=#050505;" vertex="1" parent="1">
                    <mxGeometry x="340" y="750" width="100" height="40" as="geometry"/>
                </mxCell>
                <mxCell id="43" value="id puesto" style="ellipse;whiteSpace=wrap;html=1;align=center;fillColor=#b1ddf0;strokeColor=#10739e;fontColor=#050505;" vertex="1" parent="1">
                    <mxGeometry x="340" y="820" width="100" height="40" as="geometry"/>
                </mxCell>
                <mxCell id="44" value="id trabajador" style="ellipse;whiteSpace=wrap;html=1;align=center;fillColor=#b1ddf0;strokeColor=#10739e;fontColor=#050505;" vertex="1" parent="1">
                    <mxGeometry x="340" y="500" width="100" height="40" as="geometry"/>
                </mxCell>
                <mxCell id="45" value="Antigüedad" style="ellipse;whiteSpace=wrap;html=1;align=center;dashed=1;fillColor=none;" vertex="1" parent="1">
                    <mxGeometry x="340" y="920" width="100" height="40" as="geometry"/>
                </mxCell>
                <mxCell id="46" value="compensación" style="ellipse;whiteSpace=wrap;html=1;align=center;fillColor=#b1ddf0;strokeColor=#10739e;fontColor=#050505;" vertex="1" parent="1">
                    <mxGeometry x="340" y="1030" width="100" height="40" as="geometry"/>
                </mxCell>
                <mxCell id="47" value="porcentaje_descuento" style="ellipse;whiteSpace=wrap;html=1;align=center;fillColor=#b1ddf0;strokeColor=#10739e;fontColor=#050505;" vertex="1" parent="1">
                    <mxGeometry x="515" y="770" width="135" height="40" as="geometry"/>
                </mxCell>
                <mxCell id="48" value="tipo_platillo" style="ellipse;whiteSpace=wrap;html=1;align=center;fillColor=#b1ddf0;strokeColor=#10739e;fontColor=#050505;" vertex="1" parent="1">
                    <mxGeometry x="520" y="330" width="100" height="40" as="geometry"/>
                </mxCell>
                <mxCell id="49" value="id platillo&lt;br&gt;" style="ellipse;whiteSpace=wrap;html=1;align=center;fillColor=#b1ddf0;strokeColor=#10739e;fontColor=#050505;" vertex="1" parent="1">
                    <mxGeometry x="520" y="150" width="100" height="40" as="geometry"/>
                </mxCell>
                <mxCell id="50" value="porciones" style="ellipse;whiteSpace=wrap;html=1;align=center;fillColor=#b1ddf0;strokeColor=#10739e;fontColor=#050505;" vertex="1" parent="1">
                    <mxGeometry x="520" y="390" width="100" height="40" as="geometry"/>
                </mxCell>
                <mxCell id="51" value="picante" style="ellipse;whiteSpace=wrap;html=1;align=center;fillColor=#b1ddf0;strokeColor=#10739e;fontColor=#050505;" vertex="1" parent="1">
                    <mxGeometry x="520" y="450" width="100" height="40" as="geometry"/>
                </mxCell>
                <mxCell id="52" value="id promocion" style="ellipse;whiteSpace=wrap;html=1;align=center;fillColor=#b1ddf0;strokeColor=#10739e;fontColor=#050505;" vertex="1" parent="1">
                    <mxGeometry x="520" y="510" width="100" height="40" as="geometry"/>
                </mxCell>
                <mxCell id="53" value="nombre" style="ellipse;whiteSpace=wrap;html=1;align=center;fillColor=#b1ddf0;strokeColor=#10739e;fontColor=#050505;" vertex="1" parent="1">
                    <mxGeometry x="520" y="210" width="100" height="40" as="geometry"/>
                </mxCell>
                <mxCell id="54" value="id promocion" style="ellipse;whiteSpace=wrap;html=1;align=center;fillColor=#b1ddf0;strokeColor=#10739e;fontColor=#050505;" vertex="1" parent="1">
                    <mxGeometry x="520" y="650" width="100" height="40" as="geometry"/>
                </mxCell>
                <mxCell id="55" value="validez" style="ellipse;whiteSpace=wrap;html=1;align=center;fillColor=#b1ddf0;strokeColor=#10739e;fontColor=#050505;" vertex="1" parent="1">
                    <mxGeometry x="515" y="830" width="100" height="40" as="geometry"/>
                </mxCell>
                <mxCell id="56" value="nombre" style="ellipse;whiteSpace=wrap;html=1;align=center;fillColor=#b1ddf0;strokeColor=#10739e;fontColor=#050505;" vertex="1" parent="1">
                    <mxGeometry x="520" y="710" width="100" height="40" as="geometry"/>
                </mxCell>
                <mxCell id="57" value="id equipo" style="ellipse;whiteSpace=wrap;html=1;align=center;fillColor=#b1ddf0;strokeColor=#10739e;fontColor=#050505;" vertex="1" parent="1">
                    <mxGeometry x="700" y="150" width="100" height="40" as="geometry"/>
                </mxCell>
                <mxCell id="58" value="sección" style="ellipse;whiteSpace=wrap;html=1;align=center;fillColor=#b1ddf0;strokeColor=#10739e;fontColor=#050505;" vertex="1" parent="1">
                    <mxGeometry x="700" y="210" width="100" height="40" as="geometry"/>
                </mxCell>
                <mxCell id="59" value="costo" style="ellipse;whiteSpace=wrap;html=1;align=center;fillColor=#b1ddf0;strokeColor=#10739e;fontColor=#050505;" vertex="1" parent="1">
                    <mxGeometry x="700" y="270" width="100" height="40" as="geometry"/>
                </mxCell>
                <mxCell id="60" value="estado" style="ellipse;whiteSpace=wrap;html=1;align=center;fillColor=#b1ddf0;strokeColor=#10739e;fontColor=#050505;" vertex="1" parent="1">
                    <mxGeometry x="700" y="330" width="100" height="40" as="geometry"/>
                </mxCell>
                <mxCell id="62" value="salario" style="ellipse;whiteSpace=wrap;html=1;align=center;fillColor=#b1ddf0;strokeColor=#10739e;fontColor=#050505;" vertex="1" parent="1">
                    <mxGeometry x="1060" y="150" width="100" height="40" as="geometry"/>
                </mxCell>
                <mxCell id="63" value="id jefe" style="ellipse;whiteSpace=wrap;html=1;align=center;fillColor=#b1ddf0;strokeColor=#10739e;fontColor=#050505;" vertex="1" parent="1">
                    <mxGeometry x="890" y="380" width="100" height="40" as="geometry"/>
                </mxCell>
                <mxCell id="64" value="nombre_posición" style="ellipse;whiteSpace=wrap;html=1;align=center;fillColor=#b1ddf0;strokeColor=#10739e;fontColor=#050505;" vertex="1" parent="1">
                    <mxGeometry x="890" y="200" width="100" height="40" as="geometry"/>
                </mxCell>
                <mxCell id="65" value="salario" style="ellipse;whiteSpace=wrap;html=1;align=center;fillColor=#b1ddf0;strokeColor=#10739e;fontColor=#050505;" vertex="1" parent="1">
                    <mxGeometry x="890" y="260" width="100" height="40" as="geometry"/>
                </mxCell>
                <mxCell id="66" value="beneficios" style="ellipse;whiteSpace=wrap;html=1;align=center;fillColor=#b1ddf0;strokeColor=#10739e;fontColor=#050505;" vertex="1" parent="1">
                    <mxGeometry x="890" y="320" width="100" height="40" as="geometry"/>
                </mxCell>
                <mxCell id="67" value="prestaciones" style="ellipse;whiteSpace=wrap;html=1;align=center;fillColor=#b1ddf0;strokeColor=#10739e;fontColor=#050505;" vertex="1" parent="1">
                    <mxGeometry x="1060" y="270" width="100" height="40" as="geometry"/>
                </mxCell>
                <mxCell id="68" value="bono" style="ellipse;whiteSpace=wrap;html=1;align=center;fillColor=#b1ddf0;strokeColor=#10739e;fontColor=#050505;" vertex="1" parent="1">
                    <mxGeometry x="1060" y="210" width="100" height="40" as="geometry"/>
                </mxCell>
                <mxCell id="69" value="impuestos" style="ellipse;whiteSpace=wrap;html=1;align=center;fillColor=#b1ddf0;strokeColor=#10739e;fontColor=#050505;" vertex="1" parent="1">
                    <mxGeometry x="1060" y="330" width="100" height="40" as="geometry"/>
                </mxCell>
                <mxCell id="70" value="gastos_empleado" style="ellipse;whiteSpace=wrap;html=1;align=center;fillColor=#b1ddf0;strokeColor=#10739e;fontColor=#050505;" vertex="1" parent="1">
                    <mxGeometry x="1060" y="390" width="100" height="40" as="geometry"/>
                </mxCell>
                <mxCell id="71" style="edgeStyle=none;html=1;entryX=0;entryY=0.5;entryDx=0;entryDy=0;" edge="1" parent="1" target="29">
                    <mxGeometry relative="1" as="geometry">
                        <mxPoint x="90" y="440" as="targetPoint"/>
                        <Array as="points">
                            <mxPoint x="50" y="40"/>
                            <mxPoint x="50" y="300"/>
                            <mxPoint x="50" y="360"/>
                        </Array>
                        <mxPoint x="110" y="40" as="sourcePoint"/>
                    </mxGeometry>
                </mxCell>
                <mxCell id="72" style="edgeStyle=none;html=1;entryX=0;entryY=0.5;entryDx=0;entryDy=0;" edge="1" parent="1" target="26">
                    <mxGeometry relative="1" as="geometry">
                        <mxPoint x="110" y="119.5" as="targetPoint"/>
                        <mxPoint x="50" y="119.5" as="sourcePoint"/>
                        <Array as="points">
                            <mxPoint x="80" y="119.5"/>
                        </Array>
                    </mxGeometry>
                </mxCell>
                <mxCell id="73" style="edgeStyle=none;html=1;entryX=0;entryY=0.5;entryDx=0;entryDy=0;" edge="1" parent="1">
                    <mxGeometry relative="1" as="geometry">
                        <mxPoint x="130" y="179.5" as="targetPoint"/>
                        <mxPoint x="50" y="179" as="sourcePoint"/>
                        <Array as="points">
                            <mxPoint x="80" y="179"/>
                        </Array>
                    </mxGeometry>
                </mxCell>
                <mxCell id="74" style="edgeStyle=none;html=1;entryX=0;entryY=0.5;entryDx=0;entryDy=0;" edge="1" parent="1">
                    <mxGeometry relative="1" as="geometry">
                        <mxPoint x="130" y="300.5" as="targetPoint"/>
                        <mxPoint x="50" y="300" as="sourcePoint"/>
                        <Array as="points">
                            <mxPoint x="80" y="300"/>
                        </Array>
                    </mxGeometry>
                </mxCell>
                <mxCell id="75" style="edgeStyle=none;html=1;entryX=0;entryY=0.5;entryDx=0;entryDy=0;" edge="1" parent="1">
                    <mxGeometry relative="1" as="geometry">
                        <mxPoint x="130" y="239.5" as="targetPoint"/>
                        <mxPoint x="50" y="239" as="sourcePoint"/>
                        <Array as="points">
                            <mxPoint x="80" y="239"/>
                        </Array>
                    </mxGeometry>
                </mxCell>
                <mxCell id="76" style="edgeStyle=none;html=1;entryX=0;entryY=0.5;entryDx=0;entryDy=0;" edge="1" parent="1" target="13">
                    <mxGeometry relative="1" as="geometry">
                        <mxPoint x="360.0000000000082" y="430" as="targetPoint"/>
                        <Array as="points">
                            <mxPoint x="290" y="110"/>
                            <mxPoint x="290" y="590"/>
                        </Array>
                        <mxPoint x="340" y="110" as="sourcePoint"/>
                    </mxGeometry>
                </mxCell>
                <mxCell id="77" style="edgeStyle=none;html=1;" edge="1" parent="1">
                    <mxGeometry relative="1" as="geometry">
                        <mxPoint x="340" y="170" as="targetPoint"/>
                        <mxPoint x="290" y="169.41" as="sourcePoint"/>
                        <Array as="points">
                            <mxPoint x="320" y="169.41"/>
                        </Array>
                    </mxGeometry>
                </mxCell>
                <mxCell id="78" style="edgeStyle=none;html=1;" edge="1" parent="1">
                    <mxGeometry relative="1" as="geometry">
                        <mxPoint x="340" y="230" as="targetPoint"/>
                        <mxPoint x="290" y="229.41000000000008" as="sourcePoint"/>
                        <Array as="points">
                            <mxPoint x="320" y="229.41"/>
                        </Array>
                    </mxGeometry>
                </mxCell>
                <mxCell id="79" style="edgeStyle=none;html=1;" edge="1" parent="1">
                    <mxGeometry relative="1" as="geometry">
                        <mxPoint x="340" y="400.59000000000003" as="targetPoint"/>
                        <mxPoint x="290" y="400.0000000000001" as="sourcePoint"/>
                        <Array as="points">
                            <mxPoint x="320" y="400"/>
                        </Array>
                    </mxGeometry>
                </mxCell>
                <mxCell id="80" style="edgeStyle=none;html=1;" edge="1" parent="1">
                    <mxGeometry relative="1" as="geometry">
                        <mxPoint x="340" y="350" as="targetPoint"/>
                        <mxPoint x="290" y="349.4100000000001" as="sourcePoint"/>
                        <Array as="points">
                            <mxPoint x="320" y="349.40999999999997"/>
                        </Array>
                    </mxGeometry>
                </mxCell>
                <mxCell id="81" style="edgeStyle=none;html=1;" edge="1" parent="1">
                    <mxGeometry relative="1" as="geometry">
                        <mxPoint x="340" y="290" as="targetPoint"/>
                        <mxPoint x="290" y="289.4100000000001" as="sourcePoint"/>
                        <Array as="points">
                            <mxPoint x="320" y="289.40999999999997"/>
                        </Array>
                    </mxGeometry>
                </mxCell>
                <mxCell id="82" style="edgeStyle=none;html=1;" edge="1" parent="1">
                    <mxGeometry relative="1" as="geometry">
                        <mxPoint x="340" y="460" as="targetPoint"/>
                        <mxPoint x="290" y="459.4100000000001" as="sourcePoint"/>
                        <Array as="points">
                            <mxPoint x="320" y="459.40999999999997"/>
                        </Array>
                    </mxGeometry>
                </mxCell>
                <mxCell id="83" style="edgeStyle=none;html=1;" edge="1" parent="1">
                    <mxGeometry relative="1" as="geometry">
                        <mxPoint x="340" y="520" as="targetPoint"/>
                        <mxPoint x="290" y="519.4100000000001" as="sourcePoint"/>
                        <Array as="points">
                            <mxPoint x="320" y="519.41"/>
                        </Array>
                    </mxGeometry>
                </mxCell>
                <mxCell id="84" style="edgeStyle=none;html=1;entryX=0;entryY=0.5;entryDx=0;entryDy=0;exitX=0;exitY=0.75;exitDx=0;exitDy=0;" edge="1" parent="1" source="13" target="46">
                    <mxGeometry relative="1" as="geometry">
                        <mxPoint x="340" y="1059.9999999999998" as="targetPoint"/>
                        <Array as="points">
                            <mxPoint x="290" y="600"/>
                            <mxPoint x="290" y="1050"/>
                        </Array>
                        <mxPoint x="340" y="580" as="sourcePoint"/>
                    </mxGeometry>
                </mxCell>
                <mxCell id="85" style="edgeStyle=none;html=1;" edge="1" parent="1">
                    <mxGeometry relative="1" as="geometry">
                        <mxPoint x="340" y="649.4100000000001" as="targetPoint"/>
                        <mxPoint x="290" y="648.8200000000002" as="sourcePoint"/>
                        <Array as="points">
                            <mxPoint x="320" y="648.82"/>
                        </Array>
                    </mxGeometry>
                </mxCell>
                <mxCell id="86" style="edgeStyle=none;html=1;" edge="1" parent="1">
                    <mxGeometry relative="1" as="geometry">
                        <mxPoint x="340" y="710.0000000000001" as="targetPoint"/>
                        <mxPoint x="290" y="709.4100000000002" as="sourcePoint"/>
                        <Array as="points">
                            <mxPoint x="320" y="709.4100000000001"/>
                        </Array>
                    </mxGeometry>
                </mxCell>
                <mxCell id="87" style="edgeStyle=none;html=1;" edge="1" parent="1">
                    <mxGeometry relative="1" as="geometry">
                        <mxPoint x="340" y="769.4100000000001" as="targetPoint"/>
                        <mxPoint x="290" y="768.8200000000002" as="sourcePoint"/>
                        <Array as="points">
                            <mxPoint x="320" y="768.82"/>
                        </Array>
                    </mxGeometry>
                </mxCell>
                <mxCell id="88" style="edgeStyle=none;html=1;" edge="1" parent="1">
                    <mxGeometry relative="1" as="geometry">
                        <mxPoint x="340" y="840.0000000000001" as="targetPoint"/>
                        <mxPoint x="290" y="839.4100000000002" as="sourcePoint"/>
                        <Array as="points">
                            <mxPoint x="320" y="839.4100000000001"/>
                        </Array>
                    </mxGeometry>
                </mxCell>
                <mxCell id="89" style="edgeStyle=none;html=1;" edge="1" parent="1">
                    <mxGeometry relative="1" as="geometry">
                        <mxPoint x="340" y="890.0000000000001" as="targetPoint"/>
                        <mxPoint x="290" y="889.4100000000002" as="sourcePoint"/>
                        <Array as="points">
                            <mxPoint x="320" y="889.4100000000001"/>
                        </Array>
                    </mxGeometry>
                </mxCell>
                <mxCell id="90" style="edgeStyle=none;html=1;" edge="1" parent="1">
                    <mxGeometry relative="1" as="geometry">
                        <mxPoint x="340" y="940.0000000000001" as="targetPoint"/>
                        <mxPoint x="290" y="939.4100000000002" as="sourcePoint"/>
                        <Array as="points">
                            <mxPoint x="320" y="939.4100000000001"/>
                        </Array>
                    </mxGeometry>
                </mxCell>
                <mxCell id="91" style="edgeStyle=none;html=1;" edge="1" parent="1">
                    <mxGeometry relative="1" as="geometry">
                        <mxPoint x="340" y="1000" as="targetPoint"/>
                        <mxPoint x="290" y="999.4100000000001" as="sourcePoint"/>
                        <Array as="points">
                            <mxPoint x="320" y="999.4100000000001"/>
                        </Array>
                    </mxGeometry>
                </mxCell>
                <mxCell id="92" style="edgeStyle=none;html=1;entryX=0;entryY=0.25;entryDx=0;entryDy=0;exitX=0;exitY=0.75;exitDx=0;exitDy=0;" edge="1" parent="1" target="10">
                    <mxGeometry relative="1" as="geometry">
                        <mxPoint x="520" y="560" as="targetPoint"/>
                        <Array as="points">
                            <mxPoint x="470" y="110"/>
                            <mxPoint x="470" y="600"/>
                        </Array>
                        <mxPoint x="520" y="109.99999999999977" as="sourcePoint"/>
                    </mxGeometry>
                </mxCell>
                <mxCell id="93" style="edgeStyle=none;html=1;" edge="1" parent="1">
                    <mxGeometry relative="1" as="geometry">
                        <mxPoint x="520" y="170" as="targetPoint"/>
                        <mxPoint x="470" y="169.41000000000008" as="sourcePoint"/>
                        <Array as="points">
                            <mxPoint x="500" y="169.41"/>
                        </Array>
                    </mxGeometry>
                </mxCell>
                <mxCell id="94" style="edgeStyle=none;html=1;" edge="1" parent="1">
                    <mxGeometry relative="1" as="geometry">
                        <mxPoint x="520" y="290" as="targetPoint"/>
                        <mxPoint x="470" y="289.4100000000001" as="sourcePoint"/>
                        <Array as="points">
                            <mxPoint x="500" y="289.40999999999997"/>
                        </Array>
                    </mxGeometry>
                </mxCell>
                <mxCell id="95" style="edgeStyle=none;html=1;" edge="1" parent="1">
                    <mxGeometry relative="1" as="geometry">
                        <mxPoint x="520" y="470" as="targetPoint"/>
                        <mxPoint x="470" y="469.4100000000001" as="sourcePoint"/>
                        <Array as="points">
                            <mxPoint x="500" y="469.40999999999997"/>
                        </Array>
                    </mxGeometry>
                </mxCell>
                <mxCell id="96" style="edgeStyle=none;html=1;" edge="1" parent="1">
                    <mxGeometry relative="1" as="geometry">
                        <mxPoint x="520" y="350" as="targetPoint"/>
                        <mxPoint x="470" y="349.4100000000001" as="sourcePoint"/>
                        <Array as="points">
                            <mxPoint x="500" y="349.40999999999997"/>
                        </Array>
                    </mxGeometry>
                </mxCell>
                <mxCell id="97" style="edgeStyle=none;html=1;" edge="1" parent="1">
                    <mxGeometry relative="1" as="geometry">
                        <mxPoint x="520" y="230" as="targetPoint"/>
                        <mxPoint x="470" y="229.41000000000008" as="sourcePoint"/>
                        <Array as="points">
                            <mxPoint x="500" y="229.41"/>
                        </Array>
                    </mxGeometry>
                </mxCell>
                <mxCell id="98" style="edgeStyle=none;html=1;" edge="1" parent="1">
                    <mxGeometry relative="1" as="geometry">
                        <mxPoint x="520" y="410" as="targetPoint"/>
                        <mxPoint x="470" y="409.4100000000001" as="sourcePoint"/>
                        <Array as="points">
                            <mxPoint x="500" y="409.40999999999997"/>
                        </Array>
                    </mxGeometry>
                </mxCell>
                <mxCell id="99" style="edgeStyle=none;html=1;" edge="1" parent="1">
                    <mxGeometry relative="1" as="geometry">
                        <mxPoint x="520" y="529.9999999999998" as="targetPoint"/>
                        <mxPoint x="470" y="529.4100000000001" as="sourcePoint"/>
                        <Array as="points">
                            <mxPoint x="500" y="529.41"/>
                        </Array>
                    </mxGeometry>
                </mxCell>
                <mxCell id="100" style="edgeStyle=none;html=1;entryX=0;entryY=0.5;entryDx=0;entryDy=0;exitX=0;exitY=0.75;exitDx=0;exitDy=0;" edge="1" parent="1" target="55">
                    <mxGeometry relative="1" as="geometry">
                        <mxPoint x="520" y="1060" as="targetPoint"/>
                        <Array as="points">
                            <mxPoint x="470" y="610"/>
                            <mxPoint x="470" y="850"/>
                        </Array>
                        <mxPoint x="520" y="609.9999999999998" as="sourcePoint"/>
                    </mxGeometry>
                </mxCell>
                <mxCell id="101" style="edgeStyle=none;html=1;" edge="1" parent="1">
                    <mxGeometry relative="1" as="geometry">
                        <mxPoint x="520" y="670.5899999999999" as="targetPoint"/>
                        <mxPoint x="470" y="670" as="sourcePoint"/>
                        <Array as="points">
                            <mxPoint x="500" y="670"/>
                        </Array>
                    </mxGeometry>
                </mxCell>
                <mxCell id="102" style="edgeStyle=none;html=1;" edge="1" parent="1">
                    <mxGeometry relative="1" as="geometry">
                        <mxPoint x="520" y="730" as="targetPoint"/>
                        <mxPoint x="470" y="729.4100000000001" as="sourcePoint"/>
                        <Array as="points">
                            <mxPoint x="500" y="729.41"/>
                        </Array>
                    </mxGeometry>
                </mxCell>
                <mxCell id="103" style="edgeStyle=none;html=1;" edge="1" parent="1">
                    <mxGeometry relative="1" as="geometry">
                        <mxPoint x="700" y="170" as="targetPoint"/>
                        <mxPoint x="650" y="169.41000000000008" as="sourcePoint"/>
                        <Array as="points">
                            <mxPoint x="680" y="169.41000000000003"/>
                        </Array>
                    </mxGeometry>
                </mxCell>
                <mxCell id="104" style="edgeStyle=none;html=1;" edge="1" parent="1">
                    <mxGeometry relative="1" as="geometry">
                        <mxPoint x="700" y="230.00000000000006" as="targetPoint"/>
                        <mxPoint x="650" y="229.41000000000014" as="sourcePoint"/>
                        <Array as="points">
                            <mxPoint x="680" y="229.41000000000003"/>
                        </Array>
                    </mxGeometry>
                </mxCell>
                <mxCell id="105" style="edgeStyle=none;html=1;" edge="1" parent="1">
                    <mxGeometry relative="1" as="geometry">
                        <mxPoint x="515" y="790.59" as="targetPoint"/>
                        <mxPoint x="465" y="790.0000000000001" as="sourcePoint"/>
                        <Array as="points">
                            <mxPoint x="495" y="790"/>
                        </Array>
                    </mxGeometry>
                </mxCell>
                <mxCell id="106" style="edgeStyle=none;html=1;entryX=0;entryY=0.5;entryDx=0;entryDy=0;exitX=0;exitY=0.75;exitDx=0;exitDy=0;" edge="1" parent="1">
                    <mxGeometry relative="1" as="geometry">
                        <mxPoint x="695" y="350" as="targetPoint"/>
                        <Array as="points">
                            <mxPoint x="650" y="110"/>
                            <mxPoint x="650" y="350"/>
                        </Array>
                        <mxPoint x="700" y="109.99999999999977" as="sourcePoint"/>
                    </mxGeometry>
                </mxCell>
                <mxCell id="107" style="edgeStyle=none;html=1;" edge="1" parent="1">
                    <mxGeometry relative="1" as="geometry">
                        <mxPoint x="700" y="290" as="targetPoint"/>
                        <mxPoint x="650" y="289.4100000000001" as="sourcePoint"/>
                        <Array as="points">
                            <mxPoint x="680" y="289.41"/>
                        </Array>
                    </mxGeometry>
                </mxCell>
                <mxCell id="108" style="edgeStyle=none;html=1;entryX=0;entryY=0.5;entryDx=0;entryDy=0;exitX=0;exitY=0.75;exitDx=0;exitDy=0;" edge="1" parent="1" target="63">
                    <mxGeometry relative="1" as="geometry">
                        <mxPoint x="885" y="349.9999999999998" as="targetPoint"/>
                        <Array as="points">
                            <mxPoint x="840" y="110"/>
                            <mxPoint x="840" y="400"/>
                        </Array>
                        <mxPoint x="890" y="109.99999999999977" as="sourcePoint"/>
                    </mxGeometry>
                </mxCell>
                <mxCell id="109" style="edgeStyle=none;html=1;" edge="1" parent="1">
                    <mxGeometry relative="1" as="geometry">
                        <mxPoint x="890" y="339.9999999999998" as="targetPoint"/>
                        <mxPoint x="840" y="339.4100000000001" as="sourcePoint"/>
                        <Array as="points">
                            <mxPoint x="870" y="339.41"/>
                        </Array>
                    </mxGeometry>
                </mxCell>
                <mxCell id="110" style="edgeStyle=none;html=1;" edge="1" parent="1">
                    <mxGeometry relative="1" as="geometry">
                        <mxPoint x="890" y="280.58999999999975" as="targetPoint"/>
                        <mxPoint x="840" y="280.00000000000006" as="sourcePoint"/>
                        <Array as="points">
                            <mxPoint x="870" y="280"/>
                        </Array>
                    </mxGeometry>
                </mxCell>
                <mxCell id="111" style="edgeStyle=none;html=1;" edge="1" parent="1">
                    <mxGeometry relative="1" as="geometry">
                        <mxPoint x="890" y="220.58999999999978" as="targetPoint"/>
                        <mxPoint x="840" y="220.00000000000009" as="sourcePoint"/>
                        <Array as="points">
                            <mxPoint x="870" y="220.00000000000003"/>
                        </Array>
                    </mxGeometry>
                </mxCell>
                <mxCell id="112" style="edgeStyle=none;html=1;" edge="1" parent="1">
                    <mxGeometry relative="1" as="geometry">
                        <mxPoint x="890" y="169.99999999999977" as="targetPoint"/>
                        <mxPoint x="840" y="169.41000000000008" as="sourcePoint"/>
                        <Array as="points">
                            <mxPoint x="870" y="169.41000000000003"/>
                        </Array>
                    </mxGeometry>
                </mxCell>
                <mxCell id="113" style="edgeStyle=none;html=1;entryX=0;entryY=0.5;entryDx=0;entryDy=0;exitX=0;exitY=0.75;exitDx=0;exitDy=0;" edge="1" parent="1" target="70">
                    <mxGeometry relative="1" as="geometry">
                        <mxPoint x="1055" y="349.9999999999998" as="targetPoint"/>
                        <Array as="points">
                            <mxPoint x="1010" y="110"/>
                            <mxPoint x="1010" y="410"/>
                        </Array>
                        <mxPoint x="1060" y="109.99999999999977" as="sourcePoint"/>
                    </mxGeometry>
                </mxCell>
                <mxCell id="114" style="edgeStyle=none;html=1;" edge="1" parent="1">
                    <mxGeometry relative="1" as="geometry">
                        <mxPoint x="1060" y="169.99999999999977" as="targetPoint"/>
                        <mxPoint x="1010" y="169.41000000000008" as="sourcePoint"/>
                        <Array as="points">
                            <mxPoint x="1040" y="169.41000000000003"/>
                        </Array>
                    </mxGeometry>
                </mxCell>
                <mxCell id="115" style="edgeStyle=none;html=1;" edge="1" parent="1">
                    <mxGeometry relative="1" as="geometry">
                        <mxPoint x="1060" y="349.9999999999998" as="targetPoint"/>
                        <mxPoint x="1010" y="349.4100000000001" as="sourcePoint"/>
                        <Array as="points">
                            <mxPoint x="1040" y="349.41"/>
                        </Array>
                    </mxGeometry>
                </mxCell>
                <mxCell id="117" style="edgeStyle=none;html=1;" edge="1" parent="1">
                    <mxGeometry relative="1" as="geometry">
                        <mxPoint x="1060" y="229.99999999999977" as="targetPoint"/>
                        <mxPoint x="1010" y="229.41000000000008" as="sourcePoint"/>
                        <Array as="points">
                            <mxPoint x="1040" y="229.41000000000003"/>
                        </Array>
                    </mxGeometry>
                </mxCell>
                <mxCell id="118" style="edgeStyle=none;html=1;" edge="1" parent="1">
                    <mxGeometry relative="1" as="geometry">
                        <mxPoint x="1060" y="289.9999999999998" as="targetPoint"/>
                        <mxPoint x="1010" y="289.4100000000001" as="sourcePoint"/>
                        <Array as="points">
                            <mxPoint x="1040" y="289.41"/>
                        </Array>
                    </mxGeometry>
                </mxCell>
                <mxCell id="119" style="edgeStyle=none;html=1;entryX=0.5;entryY=0;entryDx=0;entryDy=0;" edge="1" parent="1" target="20">
                    <mxGeometry relative="1" as="geometry">
                        <mxPoint x="370" y="100" as="targetPoint"/>
                        <Array as="points">
                            <mxPoint x="390" y="50"/>
                        </Array>
                        <mxPoint x="250" y="50" as="sourcePoint"/>
                    </mxGeometry>
                </mxCell>
                <mxCell id="120" style="edgeStyle=none;html=1;entryX=0.5;entryY=0;entryDx=0;entryDy=0;" edge="1" parent="1" target="11">
                    <mxGeometry relative="1" as="geometry">
                        <mxPoint x="520.0000000000001" y="90" as="targetPoint"/>
                        <Array as="points">
                            <mxPoint x="570" y="50"/>
                        </Array>
                        <mxPoint x="380" y="50" as="sourcePoint"/>
                    </mxGeometry>
                </mxCell>
                <mxCell id="121" style="edgeStyle=none;html=1;entryX=0.5;entryY=0;entryDx=0;entryDy=0;" edge="1" parent="1">
                    <mxGeometry relative="1" as="geometry">
                        <mxPoint x="750" y="90" as="targetPoint"/>
                        <Array as="points">
                            <mxPoint x="750" y="50"/>
                        </Array>
                        <mxPoint x="560.0000000000001" y="50" as="sourcePoint"/>
                    </mxGeometry>
                </mxCell>
                <mxCell id="122" style="edgeStyle=none;html=1;entryX=0.5;entryY=0;entryDx=0;entryDy=0;" edge="1" parent="1" target="12">
                    <mxGeometry relative="1" as="geometry">
                        <mxPoint x="930" y="90" as="targetPoint"/>
                        <Array as="points">
                            <mxPoint x="940" y="50"/>
                        </Array>
                        <mxPoint x="740.0000000000001" y="50" as="sourcePoint"/>
                    </mxGeometry>
                </mxCell>
                <mxCell id="123" style="edgeStyle=none;html=1;entryX=0.5;entryY=0;entryDx=0;entryDy=0;" edge="1" parent="1" target="19">
                    <mxGeometry relative="1" as="geometry">
                        <mxPoint x="1130" y="90" as="targetPoint"/>
                        <Array as="points">
                            <mxPoint x="1110" y="50"/>
                        </Array>
                        <mxPoint x="930" y="50" as="sourcePoint"/>
                    </mxGeometry>
                </mxCell>
            </root>
        </mxGraphModel>
    </diagram>
</mxfile>